<svg width="84" height="104" viewBox="0 0 84 104" fill="none" xmlns="http://www.w3.org/2000/svg">
<g filter="url(#filter0_f_5_496)">
<rect x="20" y="20" width="44" height="64" rx="8" fill="#3A4ACD" fill-opacity="0.64"/>
</g>
<rect x="10" y="12" width="64" height="64" rx="16" fill="#4AD295"/>
<path fill-rule="evenodd" clip-rule="evenodd" d="M33.8244 48.0044C33.5844 48.0044 33.3429 47.9279 33.1389 47.7719C32.6469 47.3924 32.5539 46.6859 32.9334 46.1939L37.4229 40.3589C37.6059 40.1204 37.8774 39.9659 38.1744 39.9284C38.4774 39.8894 38.7744 39.9734 39.0099 40.1609L43.2399 43.4834L46.9404 38.7089C47.3214 38.2154 48.0264 38.1239 48.5184 38.5079C49.0104 38.8889 49.1004 39.5954 48.7194 40.0859L44.3244 45.7559C44.1414 45.9929 43.8714 46.1474 43.5744 46.1834C43.2744 46.2239 42.9774 46.1369 42.7404 45.9524L38.5134 42.6314L34.7169 47.5649C34.4949 47.8529 34.1619 48.0044 33.8244 48.0044Z" fill="white"/>
<mask id="mask0_5_496" style="mask-type:luminance" maskUnits="userSpaceOnUse" x="48" y="27" width="9" height="9">
<path fill-rule="evenodd" clip-rule="evenodd" d="M48.9429 27.0002H56.9589V35.0176H48.9429V27.0002Z" fill="white"/>
</mask>
<g mask="url(#mask0_5_496)">
<path fill-rule="evenodd" clip-rule="evenodd" d="M52.9509 29.25C51.9819 29.25 51.1929 30.0375 51.1929 31.008C51.1929 31.977 51.9819 32.7675 52.9509 32.7675C53.9199 32.7675 54.7089 31.977 54.7089 31.008C54.7089 30.0375 53.9199 29.25 52.9509 29.25ZM52.9509 35.0175C50.7414 35.0175 48.9429 33.219 48.9429 31.008C48.9429 28.797 50.7414 27 52.9509 27C55.1619 27 56.9589 28.797 56.9589 31.008C56.9589 33.219 55.1619 35.0175 52.9509 35.0175Z" fill="white"/>
</g>
<mask id="mask1_5_496" style="mask-type:luminance" maskUnits="userSpaceOnUse" x="26" y="28" width="30" height="31">
<path fill-rule="evenodd" clip-rule="evenodd" d="M26 28.2632H55.7929V58.0547H26V28.2632Z" fill="white"/>
</mask>
<g mask="url(#mask1_5_496)">
<path fill-rule="evenodd" clip-rule="evenodd" d="M47.3493 58.0547H34.4433C29.3928 58.0547 25.9998 54.5072 25.9998 49.2272V37.1042C25.9998 31.8167 29.3928 28.2632 34.4433 28.2632H45.3453C45.9663 28.2632 46.4703 28.7672 46.4703 29.3882C46.4703 30.0092 45.9663 30.5132 45.3453 30.5132H34.4433C30.6813 30.5132 28.2498 33.0992 28.2498 37.1042V49.2272C28.2498 53.2847 30.6228 55.8047 34.4433 55.8047H47.3493C51.1113 55.8047 53.5428 53.2232 53.5428 49.2272V38.6687C53.5428 38.0477 54.0468 37.5437 54.6678 37.5437C55.2888 37.5437 55.7928 38.0477 55.7928 38.6687V49.2272C55.7928 54.5072 52.3998 58.0547 47.3493 58.0547Z" fill="white"/>
</g>
<defs>
<filter id="filter0_f_5_496" x="0" y="0" width="84" height="104" filterUnits="userSpaceOnUse" color-interpolation-filters="sRGB">
<feFlood flood-opacity="0" result="BackgroundImageFix"/>
<feBlend mode="normal" in="SourceGraphic" in2="BackgroundImageFix" result="shape"/>
<feGaussianBlur stdDeviation="10" result="effect1_foregroundBlur_5_496"/>
</filter>
</defs>
</svg>
